<svg width="12" height="12" viewBox="0 0 12 12" fill="none" xmlns="http://www.w3.org/2000/svg">
<path d="M4.875 6C4.875 5.70163 4.99353 5.41548 5.2045 5.2045C5.41548 4.99353 5.70163 4.875 6 4.875C6.29837 4.875 6.58452 4.99353 6.7955 5.2045C7.00647 5.41548 7.125 5.70163 7.125 6C7.125 6.29837 7.00647 6.58452 6.7955 6.7955C6.58452 7.00647 6.29837 7.125 6 7.125C5.70163 7.125 5.41548 7.00647 5.2045 6.7955C4.99353 6.58452 4.875 6.29837 4.875 6Z" fill="black"/>
<path fill-rule="evenodd" clip-rule="evenodd" d="M1 6C1 6.82 1.2125 7.0955 1.6375 7.648C2.486 8.75 3.909 10 6 10C8.091 10 9.514 8.75 10.3625 7.648C10.7875 7.096 11 6.8195 11 6C11 5.18 10.7875 4.9045 10.3625 4.352C9.514 3.25 8.091 2 6 2C3.909 2 2.486 3.25 1.6375 4.352C1.2125 4.905 1 5.1805 1 6ZM6 4.125C5.50272 4.125 5.02581 4.32254 4.67417 4.67417C4.32254 5.02581 4.125 5.50272 4.125 6C4.125 6.49728 4.32254 6.97419 4.67417 7.32583C5.02581 7.67746 5.50272 7.875 6 7.875C6.49728 7.875 6.97419 7.67746 7.32583 7.32583C7.67746 6.97419 7.875 6.49728 7.875 6C7.875 5.50272 7.67746 5.02581 7.32583 4.67417C6.97419 4.32254 6.49728 4.125 6 4.125Z" fill="black"/>
</svg>
